<svg xmlns="http://www.w3.org/2000/svg" xmlns:xlink="http://www.w3.org/1999/xlink" width="300" zoomAndPan="magnify" viewBox="0 0 224.87999 75.749997" height="101" preserveAspectRatio="xMidYMid meet" version="1.0"><defs><g/><clipPath id="3dddcba323"><path d="M 41 56 L 51 56 L 51 58.746094 L 41 58.746094 Z M 41 56 " clip-rule="nonzero"/></clipPath><clipPath id="823f2ed264"><path d="M 63 4 L 67.609375 4 L 67.609375 9 L 63 9 Z M 63 4 " clip-rule="nonzero"/></clipPath><clipPath id="d280109a30"><path d="M 64 4 L 67.609375 4 L 67.609375 9 L 64 9 Z M 64 4 " clip-rule="nonzero"/></clipPath></defs><path fill="#ffffff" d="M 27.105469 4.785156 L 26.550781 4.230469 C 26.757812 4.023438 27.003906 3.855469 27.28125 3.726562 L 27.605469 4.441406 C 27.414062 4.53125 27.246094 4.648438 27.105469 4.785156 Z M 27.105469 4.785156 " fill-opacity="1" fill-rule="nonzero"/><path fill="#ffffff" d="M 65.351562 40.8125 C 65.347656 40.40625 65.289062 39.945312 65.179688 39.445312 L 65.945312 39.277344 C 66.066406 39.828125 66.132812 40.34375 66.136719 40.808594 Z M 64.789062 38.082031 C 64.640625 37.660156 64.464844 37.210938 64.265625 36.746094 L 64.984375 36.433594 C 65.191406 36.914062 65.375 37.382812 65.527344 37.824219 Z M 63.648438 35.441406 C 63.441406 35.027344 63.210938 34.597656 62.96875 34.164062 L 63.652344 33.78125 C 63.902344 34.222656 64.136719 34.664062 64.347656 35.085938 Z M 62.242188 32.914062 C 61.996094 32.507812 61.738281 32.097656 61.46875 31.683594 L 62.125 31.253906 C 62.398438 31.675781 62.660156 32.09375 62.910156 32.503906 Z M 60.660156 30.472656 C 60.390625 30.082031 60.113281 29.683594 59.824219 29.285156 L 60.457031 28.824219 C 60.75 29.230469 61.035156 29.628906 61.304688 30.027344 Z M 58.957031 28.113281 C 58.671875 27.730469 58.375 27.347656 58.070312 26.957031 L 58.6875 26.472656 C 58.992188 26.863281 59.292969 27.253906 59.582031 27.636719 Z M 57.160156 25.820312 C 56.859375 25.449219 56.546875 25.074219 56.230469 24.699219 L 56.828125 24.191406 C 57.148438 24.570312 57.460938 24.949219 57.769531 25.324219 Z M 55.285156 23.59375 C 54.96875 23.230469 54.644531 22.867188 54.316406 22.5 L 54.898438 21.976562 C 55.230469 22.34375 55.554688 22.707031 55.875 23.074219 Z M 53.335938 21.425781 C 53.007812 21.070312 52.675781 20.71875 52.335938 20.363281 L 52.902344 19.820312 C 53.242188 20.175781 53.578125 20.535156 53.910156 20.890625 Z M 51.320312 19.316406 C 51.152344 19.144531 50.980469 18.972656 50.808594 18.800781 C 50.636719 18.628906 50.464844 18.457031 50.292969 18.285156 L 50.84375 17.726562 C 51.015625 17.898438 51.191406 18.070312 51.363281 18.242188 C 51.539062 18.417969 51.710938 18.589844 51.878906 18.765625 Z M 49.25 17.269531 C 48.898438 16.929688 48.542969 16.59375 48.191406 16.265625 L 48.726562 15.691406 C 49.082031 16.019531 49.4375 16.359375 49.792969 16.699219 Z M 47.117188 15.28125 C 46.753906 14.949219 46.390625 14.628906 46.03125 14.3125 L 46.546875 13.71875 C 46.910156 14.039062 47.277344 14.363281 47.644531 14.695312 Z M 44.929688 13.359375 C 44.554688 13.042969 44.179688 12.730469 43.808594 12.425781 L 44.304688 11.816406 C 44.679688 12.125 45.054688 12.4375 45.433594 12.757812 Z M 42.675781 11.515625 C 42.289062 11.210938 41.90625 10.914062 41.527344 10.625 L 42 9.996094 C 42.382812 10.289062 42.769531 10.589844 43.160156 10.898438 Z M 40.359375 9.757812 C 39.957031 9.46875 39.5625 9.1875 39.171875 8.917969 L 39.617188 8.269531 C 40.011719 8.542969 40.414062 8.828125 40.816406 9.121094 Z M 37.96875 8.109375 C 37.550781 7.835938 37.140625 7.578125 36.742188 7.332031 L 37.148438 6.660156 C 37.554688 6.910156 37.972656 7.171875 38.394531 7.449219 Z M 35.492188 6.601562 C 35.0625 6.359375 34.632812 6.128906 34.21875 5.917969 L 34.570312 5.214844 C 34.996094 5.429688 35.433594 5.664062 35.875 5.914062 Z M 32.917969 5.300781 C 32.457031 5.101562 32.007812 4.925781 31.585938 4.777344 L 31.84375 4.035156 C 32.285156 4.1875 32.753906 4.371094 33.230469 4.582031 Z M 30.226562 4.386719 C 29.730469 4.273438 29.269531 4.21875 28.863281 4.214844 L 28.871094 3.429688 C 29.332031 3.429688 29.84375 3.496094 30.398438 3.617188 Z M 30.226562 4.386719 " fill-opacity="1" fill-rule="nonzero"/><path fill="#ffffff" d="M 65.335938 43.136719 L 64.78125 42.582031 C 64.921875 42.441406 65.035156 42.273438 65.125 42.078125 L 65.835938 42.40625 C 65.710938 42.683594 65.542969 42.929688 65.335938 43.136719 Z M 65.335938 43.136719 " fill-opacity="1" fill-rule="nonzero"/><path fill="#ffffff" d="M 26.554688 43.136719 C 24.613281 41.195312 26.515625 36.769531 28.449219 33.398438 C 31.101562 28.769531 35.390625 23.390625 40.519531 18.242188 C 51.390625 7.335938 62.292969 1.179688 65.335938 4.230469 L 64.78125 4.785156 C 62.425781 2.425781 52.339844 7.496094 41.074219 18.800781 C 35.992188 23.898438 31.75 29.222656 29.128906 33.789062 C 26.625 38.152344 25.886719 41.355469 27.105469 42.578125 Z M 26.554688 43.136719 " fill-opacity="1" fill-rule="nonzero"/><path fill="#ffdb79" d="M 45.945312 7.320312 C 36.933594 7.320312 29.632812 14.644531 29.632812 23.683594 C 29.632812 28.472656 31.683594 32.777344 34.949219 35.773438 C 35.105469 35.90625 35.261719 36.042969 35.417969 36.179688 C 37.96875 38.511719 39.570312 41.863281 39.570312 45.597656 L 39.570312 48.558594 L 52.316406 48.558594 L 52.316406 45.597656 C 52.316406 41.863281 53.917969 38.511719 56.46875 36.179688 C 56.625 36.042969 56.777344 35.90625 56.9375 35.773438 C 60.199219 32.777344 62.253906 28.472656 62.253906 23.683594 C 62.253906 14.644531 54.953125 7.320312 45.945312 7.320312 Z M 45.945312 7.320312 " fill-opacity="1" fill-rule="nonzero"/><path fill="#ffffff" d="M 47.105469 30.273438 L 44.78125 22.503906 L 43.929688 25.355469 L 39.703125 25.355469 L 39.703125 24.519531 L 43.3125 24.519531 L 44.78125 19.597656 L 47.105469 27.371094 L 47.957031 24.519531 L 52.179688 24.519531 L 52.179688 25.355469 L 48.578125 25.355469 Z M 47.105469 30.273438 " fill-opacity="1" fill-rule="nonzero"/><path fill="#353f49" d="M 39.953125 24.574219 L 44.546875 48.808594 L 43.933594 48.925781 L 39.339844 24.691406 Z M 39.953125 24.574219 " fill-opacity="1" fill-rule="nonzero"/><path fill="#353f49" d="M 51.933594 24.574219 L 52.546875 24.6875 L 47.953125 48.925781 L 47.339844 48.808594 Z M 51.933594 24.574219 " fill-opacity="1" fill-rule="nonzero"/><path fill="#353f49" d="M 53.429688 24.9375 C 53.429688 25.628906 52.871094 26.1875 52.179688 26.1875 C 51.492188 26.1875 50.933594 25.628906 50.933594 24.9375 C 50.933594 24.242188 51.492188 23.683594 52.179688 23.683594 C 52.871094 23.683594 53.429688 24.242188 53.429688 24.9375 Z M 53.429688 24.9375 " fill-opacity="1" fill-rule="nonzero"/><path fill="#353f49" d="M 40.953125 24.9375 C 40.953125 25.628906 40.390625 26.1875 39.703125 26.1875 C 39.015625 26.1875 38.460938 25.628906 38.460938 24.9375 C 38.460938 24.242188 39.015625 23.683594 39.703125 23.683594 C 40.394531 23.683594 40.953125 24.242188 40.953125 24.9375 Z M 40.953125 24.9375 " fill-opacity="1" fill-rule="nonzero"/><path fill="#353f49" d="M 38.824219 48.558594 L 53.0625 48.558594 L 53.0625 56.105469 L 38.824219 56.105469 Z M 38.824219 48.558594 " fill-opacity="1" fill-rule="nonzero"/><path fill="#474f59" d="M 38.171875 49.640625 L 53.707031 49.640625 L 53.707031 50.714844 L 38.171875 50.714844 Z M 38.171875 49.640625 " fill-opacity="1" fill-rule="nonzero"/><path fill="#474f59" d="M 38.171875 51.796875 L 53.707031 51.796875 L 53.707031 52.878906 L 38.171875 52.878906 Z M 38.171875 51.796875 " fill-opacity="1" fill-rule="nonzero"/><path fill="#474f59" d="M 38.171875 53.953125 L 53.707031 53.953125 L 53.707031 55.035156 L 38.171875 55.035156 Z M 38.171875 53.953125 " fill-opacity="1" fill-rule="nonzero"/><g clip-path="url(#3dddcba323)"><path fill="#474f59" d="M 41.316406 56.105469 L 50.570312 56.105469 L 50.570312 58.746094 L 41.316406 58.746094 Z M 41.316406 56.105469 " fill-opacity="1" fill-rule="nonzero"/></g><path fill="#ffffff" d="M 63.054688 43.949219 C 60.878906 43.949219 57.992188 42.601562 55.625 41.234375 C 51.011719 38.574219 45.648438 34.273438 40.519531 29.125 C 29.644531 18.21875 23.511719 7.28125 26.550781 4.230469 L 27.105469 4.785156 C 24.753906 7.144531 29.804688 17.265625 41.074219 28.570312 C 46.15625 33.667969 51.460938 37.925781 56.015625 40.554688 C 60.367188 43.066406 63.558594 43.804688 64.78125 42.578125 L 65.335938 43.136719 C 64.761719 43.710938 63.972656 43.949219 63.054688 43.949219 Z M 63.054688 43.949219 " fill-opacity="1" fill-rule="nonzero"/><path fill="#ffffff" d="M 65.125 5.285156 C 65.035156 5.09375 64.921875 4.925781 64.78125 4.785156 L 65.335938 4.230469 C 65.539062 4.4375 65.710938 4.679688 65.835938 4.957031 Z M 65.125 5.285156 " fill-opacity="1" fill-rule="nonzero"/><path fill="#ffffff" d="M 28.875 43.9375 L 28.867188 43.152344 C 29.273438 43.148438 29.734375 43.089844 30.234375 42.980469 L 30.402344 43.75 C 29.847656 43.871094 29.335938 43.933594 28.875 43.9375 Z M 31.847656 43.332031 L 31.589844 42.589844 C 32.011719 42.441406 32.460938 42.265625 32.921875 42.0625 L 33.234375 42.785156 C 32.753906 42.996094 32.289062 43.179688 31.847656 43.332031 Z M 34.574219 42.148438 L 34.222656 41.445312 C 34.636719 41.238281 35.0625 41.007812 35.496094 40.765625 L 35.878906 41.453125 C 35.4375 41.699219 35 41.933594 34.574219 42.148438 Z M 37.152344 40.703125 L 36.746094 40.03125 C 37.148438 39.789062 37.554688 39.527344 37.972656 39.257812 L 38.398438 39.917969 C 37.976562 40.191406 37.5625 40.457031 37.152344 40.703125 Z M 39.621094 39.09375 L 39.175781 38.449219 C 39.566406 38.179688 39.964844 37.898438 40.363281 37.609375 L 40.820312 38.246094 C 40.417969 38.539062 40.015625 38.824219 39.621094 39.09375 Z M 42.003906 37.367188 L 41.53125 36.742188 C 41.910156 36.453125 42.292969 36.15625 42.679688 35.851562 L 43.164062 36.46875 C 42.773438 36.777344 42.386719 37.078125 42.003906 37.367188 Z M 44.3125 35.546875 L 43.816406 34.9375 C 44.1875 34.632812 44.558594 34.324219 44.933594 34.007812 L 45.4375 34.605469 C 45.0625 34.925781 44.683594 35.242188 44.3125 35.546875 Z M 46.550781 33.648438 L 46.035156 33.054688 C 46.398438 32.738281 46.761719 32.414062 47.125 32.085938 L 47.648438 32.667969 C 47.28125 33 46.917969 33.328125 46.550781 33.648438 Z M 48.730469 31.675781 L 48.195312 31.097656 C 48.546875 30.769531 48.902344 30.4375 49.253906 30.097656 L 49.796875 30.664062 C 49.441406 31.007812 49.085938 31.34375 48.730469 31.675781 Z M 50.847656 29.640625 L 50.296875 29.082031 C 50.46875 28.910156 50.640625 28.742188 50.808594 28.570312 C 50.984375 28.394531 51.15625 28.222656 51.324219 28.046875 L 51.882812 28.601562 C 51.710938 28.777344 51.539062 28.949219 51.363281 29.125 C 51.191406 29.296875 51.019531 29.46875 50.847656 29.640625 Z M 52.90625 27.542969 L 52.339844 27 C 52.679688 26.648438 53.011719 26.292969 53.339844 25.9375 L 53.914062 26.476562 C 53.582031 26.832031 53.246094 27.1875 52.90625 27.542969 Z M 54.902344 25.390625 L 54.320312 24.863281 C 54.648438 24.5 54.972656 24.132812 55.289062 23.773438 L 55.878906 24.289062 C 55.558594 24.65625 55.234375 25.023438 54.902344 25.390625 Z M 56.835938 23.171875 L 56.234375 22.664062 C 56.550781 22.289062 56.863281 21.917969 57.164062 21.542969 L 57.773438 22.042969 C 57.464844 22.417969 57.152344 22.792969 56.835938 23.171875 Z M 58.691406 20.890625 L 58.074219 20.40625 C 58.378906 20.019531 58.675781 19.632812 58.960938 19.25 L 59.585938 19.726562 C 59.296875 20.109375 58.996094 20.5 58.691406 20.890625 Z M 60.460938 18.542969 L 59.824219 18.082031 C 60.113281 17.679688 60.394531 17.28125 60.664062 16.890625 L 61.308594 17.335938 C 61.035156 17.734375 60.753906 18.136719 60.460938 18.542969 Z M 62.128906 16.109375 L 61.46875 15.679688 C 61.738281 15.265625 61.996094 14.855469 62.242188 14.449219 L 62.914062 14.859375 C 62.664062 15.269531 62.402344 15.6875 62.128906 16.109375 Z M 63.65625 13.582031 L 62.972656 13.199219 C 63.214844 12.761719 63.445312 12.332031 63.652344 11.921875 L 64.351562 12.273438 C 64.140625 12.699219 63.90625 13.136719 63.65625 13.582031 Z M 64.984375 10.929688 L 64.265625 10.617188 C 64.46875 10.148438 64.644531 9.699219 64.789062 9.28125 L 65.53125 9.539062 C 65.378906 9.976562 65.195312 10.445312 64.984375 10.929688 Z M 65.945312 8.085938 L 65.179688 7.917969 C 65.289062 7.414062 65.347656 6.953125 65.351562 6.546875 L 66.136719 6.554688 C 66.132812 7.015625 66.066406 7.53125 65.945312 8.085938 Z M 65.945312 8.085938 " fill-opacity="1" fill-rule="nonzero"/><path fill="#ffffff" d="M 27.277344 43.640625 C 27.003906 43.511719 26.757812 43.339844 26.550781 43.136719 L 27.109375 42.578125 C 27.246094 42.71875 27.414062 42.835938 27.605469 42.925781 Z M 27.277344 43.640625 " fill-opacity="1" fill-rule="nonzero"/><path fill="#d9d8d7" d="M 38.394531 7.449219 C 37.972656 7.171875 37.554688 6.910156 37.148438 6.660156 L 36.742188 7.332031 C 37.140625 7.578125 37.550781 7.835938 37.964844 8.109375 Z M 38.394531 7.449219 " fill-opacity="1" fill-rule="nonzero"/><path fill="#d9d8d7" d="M 39.914062 8.480469 C 39.816406 8.410156 39.714844 8.335938 39.617188 8.269531 L 39.292969 8.742188 C 39.496094 8.652344 39.703125 8.5625 39.914062 8.480469 Z M 39.914062 8.480469 " fill-opacity="1" fill-rule="nonzero"/><path fill="#d9d8d7" d="M 61.097656 17.636719 C 61.167969 17.535156 61.242188 17.433594 61.308594 17.335938 L 60.835938 17.007812 C 60.925781 17.214844 61.015625 17.425781 61.097656 17.636719 Z M 61.097656 17.636719 " fill-opacity="1" fill-rule="nonzero"/><path fill="#d9d8d7" d="M 62.910156 32.503906 C 62.660156 32.09375 62.398438 31.675781 62.125 31.253906 L 61.464844 31.683594 C 61.738281 32.097656 61.996094 32.507812 62.238281 32.914062 Z M 62.910156 32.503906 " fill-opacity="1" fill-rule="nonzero"/><path fill="#d9d8d7" d="M 62.242188 14.453125 C 61.996094 14.855469 61.742188 15.265625 61.46875 15.679688 L 62.128906 16.109375 C 62.402344 15.6875 62.664062 15.269531 62.914062 14.859375 Z M 62.242188 14.453125 " fill-opacity="1" fill-rule="nonzero"/><path fill="#d9d8d7" d="M 61.304688 30.027344 C 61.238281 29.929688 61.167969 29.832031 61.097656 29.734375 C 61.015625 29.941406 60.933594 30.144531 60.839844 30.347656 Z M 61.304688 30.027344 " fill-opacity="1" fill-rule="nonzero"/><path fill="#d9d8d7" d="M 64.351562 12.273438 L 63.652344 11.921875 C 63.445312 12.335938 63.214844 12.765625 62.972656 13.199219 L 63.65625 13.582031 C 63.90625 13.140625 64.140625 12.699219 64.351562 12.273438 Z M 64.351562 12.273438 " fill-opacity="1" fill-rule="nonzero"/><path fill="#d9d8d7" d="M 63.648438 35.441406 L 64.347656 35.089844 C 64.136719 34.667969 63.902344 34.226562 63.652344 33.78125 L 62.96875 34.164062 C 63.214844 34.601562 63.441406 35.03125 63.648438 35.441406 Z M 63.648438 35.441406 " fill-opacity="1" fill-rule="nonzero"/><path fill="#d9d8d7" d="M 65.527344 37.824219 C 65.375 37.382812 65.191406 36.914062 64.984375 36.433594 L 64.265625 36.746094 C 64.464844 37.210938 64.640625 37.660156 64.789062 38.082031 Z M 65.527344 37.824219 " fill-opacity="1" fill-rule="nonzero"/><path fill="#d9d8d7" d="M 66.136719 6.554688 L 65.351562 6.546875 C 65.347656 6.957031 65.289062 7.417969 65.179688 7.917969 L 65.945312 8.085938 C 66.066406 7.53125 66.132812 7.015625 66.136719 6.554688 Z M 66.136719 6.554688 " fill-opacity="1" fill-rule="nonzero"/><path fill="#d9d8d7" d="M 52.8125 8.839844 C 58.769531 4.753906 63.300781 3.304688 64.78125 4.785156 C 64.921875 4.925781 65.035156 5.09375 65.125 5.285156 L 65.835938 4.960938 C 65.707031 4.679688 65.539062 4.4375 65.335938 4.230469 L 65.058594 4.507812 L 65.335938 4.230469 C 63.394531 2.285156 58.253906 4.089844 51.96875 8.476562 C 52.253906 8.589844 52.535156 8.710938 52.8125 8.839844 Z M 52.8125 8.839844 " fill-opacity="1" fill-rule="nonzero"/><path fill="#d9d8d7" d="M 64.789062 9.28125 C 64.644531 9.703125 64.46875 10.152344 64.265625 10.613281 L 64.984375 10.929688 C 65.195312 10.449219 65.378906 9.980469 65.53125 9.539062 Z M 64.789062 9.28125 " fill-opacity="1" fill-rule="nonzero"/><path fill="#d9d8d7" d="M 37.90625 39.300781 C 37.515625 39.554688 37.125 39.800781 36.746094 40.03125 L 37.152344 40.703125 C 37.519531 40.480469 37.894531 40.242188 38.273438 39.996094 C 38.15625 39.761719 38.035156 39.527344 37.90625 39.300781 Z M 37.90625 39.300781 " fill-opacity="1" fill-rule="nonzero"/><path fill="#d9d8d7" d="M 31.589844 42.589844 L 31.847656 43.332031 C 32.289062 43.179688 32.753906 42.996094 33.234375 42.785156 L 32.921875 42.0625 C 32.460938 42.265625 32.011719 42.441406 31.589844 42.589844 Z M 31.589844 42.589844 " fill-opacity="1" fill-rule="nonzero"/><path fill="#d9d8d7" d="M 34.222656 41.449219 L 34.578125 42.148438 C 35 41.933594 35.4375 41.699219 35.878906 41.453125 L 35.496094 40.765625 C 35.066406 41.007812 34.636719 41.238281 34.222656 41.449219 Z M 34.222656 41.449219 " fill-opacity="1" fill-rule="nonzero"/><path fill="#d9d8d7" d="M 35.875 5.914062 C 35.433594 5.664062 34.996094 5.429688 34.570312 5.214844 L 34.21875 5.917969 C 34.632812 6.128906 35.0625 6.359375 35.492188 6.601562 Z M 35.875 5.914062 " fill-opacity="1" fill-rule="nonzero"/><path fill="#d9d8d7" d="M 65.179688 39.445312 C 65.289062 39.945312 65.347656 40.40625 65.351562 40.8125 L 66.136719 40.808594 C 66.128906 40.347656 66.066406 39.832031 65.945312 39.277344 Z M 65.179688 39.445312 " fill-opacity="1" fill-rule="nonzero"/><path fill="#d9d8d7" d="M 65.125 42.078125 C 65.035156 42.273438 64.921875 42.441406 64.78125 42.582031 L 65.058594 42.859375 L 64.78125 42.582031 C 63.402344 43.964844 59.355469 42.789062 53.976562 39.304688 C 53.847656 39.53125 53.726562 39.761719 53.609375 40 C 57.496094 42.507812 60.835938 43.917969 63.089844 43.917969 C 64.046875 43.917969 64.808594 43.664062 65.335938 43.136719 C 65.542969 42.929688 65.710938 42.683594 65.835938 42.40625 Z M 65.125 42.078125 " fill-opacity="1" fill-rule="nonzero"/><path fill="#d9d8d7" d="M 33.230469 4.582031 C 32.753906 4.371094 32.285156 4.1875 31.84375 4.035156 L 31.585938 4.777344 C 32.007812 4.925781 32.457031 5.101562 32.917969 5.304688 Z M 33.230469 4.582031 " fill-opacity="1" fill-rule="nonzero"/><path fill="#d9d8d7" d="M 30.398438 3.617188 C 29.84375 3.496094 29.332031 3.429688 28.871094 3.429688 L 28.863281 4.214844 C 29.269531 4.21875 29.730469 4.273438 30.226562 4.386719 Z M 30.398438 3.617188 " fill-opacity="1" fill-rule="nonzero"/><path fill="#d9d8d7" d="M 26.832031 42.859375 L 27.105469 42.578125 C 25.886719 41.355469 26.625 38.152344 29.128906 33.789062 C 29.722656 32.753906 30.402344 31.679688 31.152344 30.578125 C 31.023438 30.300781 30.898438 30.015625 30.785156 29.726562 C 29.910156 30.988281 29.125 32.21875 28.449219 33.398438 C 26.515625 36.769531 24.613281 41.191406 26.550781 43.136719 C 26.554688 43.136719 26.554688 43.136719 26.554688 43.136719 C 26.757812 43.34375 27.003906 43.511719 27.277344 43.636719 L 27.605469 42.921875 C 27.414062 42.835938 27.246094 42.71875 27.105469 42.578125 Z M 26.832031 42.859375 " fill-opacity="1" fill-rule="nonzero"/><path fill="#d9d8d7" d="M 31.148438 16.792969 C 27.074219 10.816406 25.628906 6.269531 27.105469 4.785156 C 27.246094 4.648438 27.414062 4.53125 27.605469 4.441406 L 27.28125 3.726562 C 27.003906 3.855469 26.757812 4.023438 26.550781 4.230469 C 24.613281 6.175781 26.410156 11.332031 30.785156 17.640625 C 30.898438 17.355469 31.019531 17.070312 31.148438 16.792969 Z M 31.148438 16.792969 " fill-opacity="1" fill-rule="nonzero"/><path fill="#d9d8d7" d="M 28.867188 43.152344 L 28.875 43.9375 C 29.335938 43.933594 29.847656 43.871094 30.402344 43.75 L 30.234375 42.980469 C 29.734375 43.089844 29.273438 43.148438 28.867188 43.152344 Z M 28.867188 43.152344 " fill-opacity="1" fill-rule="nonzero"/><g clip-path="url(#823f2ed264)"><path fill="#474f59" d="M 67.601562 6.179688 C 67.601562 7.214844 66.765625 8.054688 65.730469 8.054688 C 64.695312 8.054688 63.859375 7.214844 63.859375 6.179688 C 63.859375 5.144531 64.695312 4.300781 65.730469 4.300781 C 66.765625 4.300781 67.601562 5.144531 67.601562 6.179688 Z M 67.601562 6.179688 " fill-opacity="1" fill-rule="nonzero"/></g><g clip-path="url(#d280109a30)"><path fill="#232e38" d="M 66.449219 4.445312 C 66.6875 4.746094 66.828125 5.121094 66.828125 5.535156 C 66.828125 6.5 66.050781 7.28125 65.089844 7.28125 C 64.675781 7.28125 64.300781 7.136719 64.003906 6.898438 C 64.285156 7.578125 64.953125 8.054688 65.730469 8.054688 C 66.765625 8.054688 67.601562 7.214844 67.601562 6.179688 C 67.601562 5.398438 67.125 4.726562 66.449219 4.445312 Z M 66.449219 4.445312 " fill-opacity="1" fill-rule="nonzero"/></g><path fill="#474f59" d="M 58.5 41.351562 C 58.5 42.386719 57.660156 43.226562 56.632812 43.226562 C 55.597656 43.226562 54.757812 42.386719 54.757812 41.351562 C 54.757812 40.3125 55.597656 39.472656 56.632812 39.472656 C 57.660156 39.472656 58.5 40.3125 58.5 41.351562 Z M 58.5 41.351562 " fill-opacity="1" fill-rule="nonzero"/><path fill="#232e38" d="M 57.347656 39.613281 C 57.585938 39.914062 57.730469 40.289062 57.730469 40.703125 C 57.730469 41.667969 56.949219 42.453125 55.988281 42.453125 C 55.574219 42.453125 55.199219 42.308594 54.902344 42.070312 C 55.183594 42.75 55.851562 43.226562 56.632812 43.226562 C 57.660156 43.226562 58.5 42.382812 58.5 41.351562 C 58.5 40.570312 58.027344 39.898438 57.347656 39.613281 Z M 57.347656 39.613281 " fill-opacity="1" fill-rule="nonzero"/><g fill="#000000" fill-opacity="1"><g transform="translate(58.217073, 56.237233)"><g><path d="M 45 0 L 35.25 0 L 31.71875 -10.8125 L 13.765625 -10.8125 L 10.234375 0 L 0.703125 0 L 16.90625 -46.890625 L 28.796875 -46.890625 Z M 22.296875 -37.109375 L 16.265625 -18.609375 L 29.15625 -18.609375 L 23.09375 -37.109375 Z M 22.296875 -37.109375 "/></g></g></g><g fill="#000000" fill-opacity="1"><g transform="translate(103.908047, 56.237233)"><g><path d="M 9.53125 -39.609375 C 7.925781 -39.609375 6.617188 -40.09375 5.609375 -41.0625 C 4.609375 -42.039062 4.109375 -43.300781 4.109375 -44.84375 C 4.109375 -46.351562 4.609375 -47.59375 5.609375 -48.5625 C 6.617188 -49.539062 7.925781 -50.03125 9.53125 -50.03125 C 10.59375 -50.03125 11.539062 -49.804688 12.375 -49.359375 C 13.207031 -48.910156 13.851562 -48.296875 14.3125 -47.515625 C 14.78125 -46.734375 15.015625 -45.84375 15.015625 -44.84375 C 15.015625 -43.832031 14.78125 -42.929688 14.3125 -42.140625 C 13.851562 -41.347656 13.207031 -40.726562 12.375 -40.28125 C 11.539062 -39.832031 10.59375 -39.609375 9.53125 -39.609375 Z M 5.09375 0 L 5.09375 -35.375 L 13.984375 -35.375 L 13.984375 0 Z M 5.09375 0 "/></g></g></g><g fill="#000000" fill-opacity="1"><g transform="translate(122.953968, 56.237233)"><g><path d="M 36.34375 0 L 1.921875 0 L 1.921875 -8.171875 L 25.4375 -38.453125 L 25.203125 -39.125 L 2.859375 -39.125 L 2.859375 -46.890625 L 36.109375 -46.890625 L 36.109375 -38.71875 L 12.609375 -8.4375 L 12.828125 -7.765625 L 36.34375 -7.765625 Z M 36.34375 0 "/></g></g></g><g fill="#000000" fill-opacity="1"><g transform="translate(161.238194, 56.237233)"><g><path d="M 6.09375 0 L 6.09375 -46.890625 L 24.921875 -46.890625 C 29.773438 -46.890625 33.4375 -45.769531 35.90625 -43.53125 C 38.375 -41.300781 39.609375 -38.21875 39.609375 -34.28125 C 39.609375 -31.4375 38.882812 -29.101562 37.4375 -27.28125 C 36 -25.46875 33.847656 -24.082031 30.984375 -23.125 L 30.984375 -22.453125 C 32.460938 -21.804688 33.65625 -20.851562 34.5625 -19.59375 C 35.46875 -18.332031 36.328125 -16.460938 37.140625 -13.984375 L 41.828125 0 L 32.296875 0 L 27.71875 -14.015625 C 27.238281 -15.429688 26.707031 -16.523438 26.125 -17.296875 C 25.539062 -18.078125 24.789062 -18.644531 23.875 -19 C 22.96875 -19.351562 21.785156 -19.53125 20.328125 -19.53125 L 15.359375 -19.53125 L 15.359375 0 Z M 23.796875 -26.875 C 28.285156 -26.875 30.53125 -28.972656 30.53125 -33.171875 C 30.53125 -37.421875 28.285156 -39.546875 23.796875 -39.546875 L 15.359375 -39.546875 L 15.359375 -26.875 Z M 23.796875 -26.875 "/></g></g></g></svg>